HIERARCHY
ROOT RootJoint
{
    OFFSET   0.000000   0.000000   0.000000
    CHANNELS 6 Xposition Yposition Zposition Xrotation Yrotation Zrotation
    JOINT pelvis_lowerback
    {
        OFFSET   0.000000   0.093605   0.000000
        CHANNELS 3 Xrotation Yrotation Zrotation
        JOINT lowerback_torso
        {
            OFFSET   0.000000   0.100000   0.000000
            CHANNELS 3 Xrotation Yrotation Zrotation
            JOINT torso_head
            {
                OFFSET   0.000000   0.282350   0.000000
                CHANNELS 3 Xrotation Yrotation Zrotation
                End Site
                {
                    OFFSET   0.000000   0.192650   0.000000
                }
            }
            JOINT rTorso_Clavicle
            {
                OFFSET  -0.001000   0.157500   0.000000
                CHANNELS 3 Xrotation Yrotation Zrotation
                JOINT rShoulder
                {
                    OFFSET  -0.117647   0.000000   0.000000
                    CHANNELS 3 Xrotation Yrotation Zrotation
                    JOINT rElbow
                    {
                        OFFSET  -0.245000   0.000000   0.000000
                        CHANNELS 3 Xrotation Yrotation Zrotation
                        JOINT rWrist
                        {
                            OFFSET  -0.240000   0.000000   0.000000
                            CHANNELS 3 Xrotation Yrotation Zrotation
                            End Site
                            {
                                OFFSET  -0.116353  -0.002500   0.000000
                            }
                        }
                    }
                }
            }
            JOINT lTorso_Clavicle
            {
                OFFSET   0.001000   0.157500   0.000000
                CHANNELS 3 Xrotation Yrotation Zrotation
                JOINT lShoulder
                {
                    OFFSET   0.117647   0.000000   0.000000
                    CHANNELS 3 Xrotation Yrotation Zrotation
                    JOINT lElbow
                    {
                        OFFSET   0.245000   0.000000   0.000000
                        CHANNELS 3 Xrotation Yrotation Zrotation
                        JOINT lWrist
                        {
                            OFFSET   0.240000   0.000000   0.000000
                            CHANNELS 3 Xrotation Yrotation Zrotation
                            End Site
                            {
                                OFFSET   0.116353  -0.002500   0.000000
                            }
                        }
                    }
                }
            }
        }
    }
    JOINT rHip
    {
        OFFSET  -0.100000  -0.051395   0.000000
        CHANNELS 3 Xrotation Yrotation Zrotation
        JOINT rKnee
        {
            OFFSET   0.000000  -0.410000   0.000000
            CHANNELS 3 Xrotation Yrotation Zrotation
            JOINT rAnkle
            {
                OFFSET   0.000000  -0.390000   0.000000
                CHANNELS 3 Xrotation Yrotation Zrotation
                JOINT rToeJoint
                {
                    OFFSET   0.000000  -0.050000   0.130000
                    CHANNELS 3 Xrotation Yrotation Zrotation
                    End Site
                    {
                        OFFSET  -0.010000   0.002000   0.060000
                    }
                }
            }
        }
    }
    JOINT lHip
    {
        OFFSET   0.100000  -0.051395   0.000000
        CHANNELS 3 Xrotation Yrotation Zrotation
        JOINT lKnee
        {
            OFFSET   0.000000  -0.410000   0.000000
            CHANNELS 3 Xrotation Yrotation Zrotation
            JOINT lAnkle
            {
                OFFSET   0.000000  -0.390000   0.000000
                CHANNELS 3 Xrotation Yrotation Zrotation
                JOINT lToeJoint
                {
                    OFFSET   0.000000  -0.050000   0.130000
                    CHANNELS 3 Xrotation Yrotation Zrotation
                    End Site
                    {
                        OFFSET   0.010000   0.002000   0.060000
                    }
                }
            }
        }
    }
}
MOTION
Frames: 12
Frame Time:   0.008333
 -2.544377   0.846266   4.100404   2.747404  19.486679  -2.332417  19.303328   0.172012   1.083734  -4.327824  -0.032919   2.523907  -6.515130  -6.788282   2.539238  -7.090875   7.402088   9.153689 -31.733771   6.517808  36.727421 -179.741176  87.196989 179.753532   0.985434   6.929948 -20.196996  -0.435806   1.494790  -9.379084  -7.322418   3.330260 -42.590208   0.184605 -69.696228   0.172763  -1.649880  -4.642152  21.992426 -39.294295  -0.783095  -7.648864  51.168682   0.008380  -0.066188 -11.381353   5.762009   3.486175  -1.678659  -0.000831   0.003228 -23.888746  -5.403112   2.366750  50.808129   0.008380  -0.005944 -30.276620  -0.552648   4.197810   0.836851  -0.000406   0.001224
 -2.543431   0.841792   4.097601   2.592997  19.304235  -2.347058  19.344186   0.131241   1.129803  -4.345754  -0.270050   2.774242  -6.588012  -6.603995   2.527859  -6.955759   7.427728   9.447038 -31.679082   6.096362  36.926961 -179.774652  86.864670 179.785539   0.921409   6.967153 -20.639630  -0.514854   0.649897  -9.541924  -7.588153   2.441102 -42.527595   0.192813 -70.817545   0.185053  -1.725692  -4.663960  22.202881 -40.378469  -0.658756  -8.298541  53.470320   0.011704  -0.067868 -11.364087   5.106800   3.510449  -1.724802  -0.000843   0.003123 -24.649569  -5.176637   2.347273  52.390186   0.008466  -0.004748 -30.954459  -0.637787   4.357386   0.839552  -0.000326   0.000979
 -2.542594   0.837341   4.094877   2.467583  19.167943  -2.380610  19.395080   0.096779   1.191611  -4.375000  -0.510670   3.028416  -6.659884  -6.426942   2.511310  -6.837584   7.459468   9.723148 -31.633754   5.703097  37.111698 -179.804032  86.558293 179.813674   0.856078   6.994587 -21.107143  -0.628906  -0.186887  -9.657548  -7.868789   1.568644 -42.452681   0.198094 -71.886322   0.193903  -1.754829  -4.783818  22.339337 -41.359252  -0.500278  -8.973598  55.717557   0.015033  -0.068434 -11.338331   4.492853   3.531159  -1.735362  -0.000724   0.002614 -25.417673  -4.978436   2.344269  53.918770   0.008543  -0.003463 -31.599562  -0.746728   4.500996   0.842966  -0.000262   0.000783
 -2.541838   0.832985   4.092264   2.373679  19.024444  -2.434281  19.445112   0.072045   1.261412  -4.408690  -0.735679   3.282421  -6.727748  -6.260470   2.495505  -6.729999   7.501634   9.986262 -31.591500   5.341505  37.289981 -179.829517  86.272564 179.838102   0.793780   7.022412 -21.551937  -0.756976  -0.985937  -9.748343  -8.148131   0.738410 -42.376196   0.200795 -72.893404   0.199473  -1.756609  -4.960388  22.469053 -42.234458  -0.325732  -9.643390  57.840739   0.017435  -0.068380 -11.312824   3.919603   3.549706  -1.742260  -0.000614   0.002164 -26.176430  -4.790708   2.364861  55.376606   0.008413  -0.002535 -32.212307  -0.845323   4.633195   0.846719  -0.000211   0.000627
 -2.541158   0.828757   4.089764   2.312418  18.857518  -2.504492  19.492180   0.057687   1.334585  -4.443675  -0.940029   3.531743  -6.791920  -6.104775   2.481130  -6.630987   7.551411  10.236531 -31.551093   5.008711  37.461992 -179.851584  86.005616 179.859254   0.735094   7.052592 -21.967211  -0.886278  -1.737897  -9.823583  -8.416516  -0.042692 -42.302249   0.201542 -73.838376   0.202420  -1.743831  -5.162770  22.605807 -43.014053  -0.145084 -10.297673  59.833434   0.018762  -0.067886 -11.288632   3.384253   3.566439  -1.748244  -0.000521   0.001794 -26.921614  -4.606472   2.407370  56.757291   0.008060  -0.001985 -32.791805  -0.923612   4.756466   0.850810  -0.000170   0.000501
 -2.540560   0.824680   4.087376   2.283236  18.664338  -2.587645  19.537082   0.052934   1.408568  -4.477395  -1.123481   3.773304  -6.852527  -5.959409   2.468151  -6.539726   7.605487  10.473404 -31.512492   4.701516  37.626613 -179.870748  85.756302 179.877607   0.679609   7.084097 -22.356266  -1.010417  -2.440339  -9.888272  -8.669506  -0.773302 -42.232600   0.200807 -74.723014   0.203294  -1.723687  -5.373941  22.750141 -43.706901   0.036071 -10.931297  61.701191   0.019143  -0.066953 -11.265930   2.884279   3.581595  -1.753846  -0.000443   0.001493 -27.652285  -4.423843   2.469025  58.059241   0.007522  -0.001724 -33.337464  -0.979960   4.872373   0.855417  -0.000137   0.000401
 -2.540052   0.820765   4.085094   2.284929  18.446590  -2.680366  19.581216   0.056637   1.481436  -4.507858  -1.287263   4.005019  -6.909523  -5.823770   2.456413  -6.455664   7.661359  10.696536 -31.475850   4.417209  37.782965 -179.887460  85.523596 179.893588   0.626807   7.115646 -22.723370  -1.126291  -3.093815  -9.945388  -8.905355  -1.454413 -42.167925   0.198930 -75.549988   0.202525  -1.700265  -5.584565  22.900225 -44.320721   0.214174 -11.541126  63.451613   0.018777  -0.065556 -11.244690   2.417362   3.595354  -1.759153  -0.000379   0.001249 -28.368743  -4.242769   2.546884  59.283111   0.006851  -0.001652 -33.849146  -1.015427   4.982068   0.860775  -0.000112   0.000321
 -2.539590   0.816865   4.082882   2.272045  18.259484  -2.684604  19.578427   0.090754   1.478352  -4.420374  -1.475204   4.224786  -7.036679  -5.644485   2.379980  -6.375735   7.727251  10.855778 -31.634603   4.066571  37.929138 -179.897651  85.272221 179.903149   0.515630   7.083256 -22.987684  -1.167801  -3.858279  -9.914790  -9.194121  -2.240664 -41.891240   0.209625 -76.500934   0.216685  -1.780029  -5.563880  23.034895 -44.865257   0.458027 -12.271990  65.190310   0.018903  -0.064870 -11.023563   1.938345   3.591677  -1.769174  -0.000351   0.001107 -29.046069  -3.997866   2.573666  60.436224   0.006557  -0.001059 -34.316007  -1.109141   5.044567   0.856967  -0.000089   0.000257
 -2.539180   0.813078   4.080799   2.273846  18.070457  -2.693780  19.570739   0.124849   1.485858  -4.347904  -1.661018   4.441141  -7.150818  -5.472364   2.300014  -6.321155   7.793641  10.987791 -31.800298   3.746689  38.055258 -179.906680  85.034279 179.911557   0.412096   7.063438 -23.273205  -1.241856  -4.598811  -9.829602  -9.493001  -3.004349 -41.601762   0.217774 -77.409393   0.227890  -1.816358  -5.629532  23.131464 -45.338631   0.711847 -13.011463  66.828879   0.018829  -0.063797 -10.813563   1.489682   3.588458  -1.759768  -0.000240   0.000784 -29.704480  -3.754013   2.615799  61.535092   0.006239  -0.000559 -34.760936  -1.203591   5.095033   0.852292  -0.000072   0.000205
 -2.538818   0.809440   4.078873   2.294155  17.859299  -2.715023  19.553789   0.158497   1.503983  -4.295194  -1.836381   4.656901  -7.255780  -5.310907   2.224719  -6.279512   7.861558  11.103103 -31.961785   3.454494  38.169248 -179.914726  84.809940 179.919023   0.318694   7.059185 -23.553326  -1.330285  -5.299382  -9.722096  -9.787625  -3.728925 -41.317210   0.223497 -78.265646   0.235909  -1.826237  -5.746797  23.241618 -45.751913   0.964440 -13.734474  68.361682   0.018317  -0.062356 -10.617425   1.070306   3.586109  -1.749767  -0.000149   0.000521 -30.339608  -3.514287   2.678699  62.574779   0.005801  -0.000290 -35.187121  -1.278820   5.139429   0.847801  -0.000058   0.000164
 -2.538508   0.805969   4.077106   2.331665  17.621875  -2.746099  19.527811   0.191539   1.530193  -4.258495  -1.999684   4.869827  -7.353990  -5.160045   2.155147  -6.245975   7.929144  11.206868 -32.116043   3.185627  38.273934 -179.921973  84.599070 179.925738   0.233259   7.065527 -23.823095  -1.422195  -5.956904  -9.606198 -10.069827  -4.411003 -41.044803   0.227416 -79.069297   0.241354  -1.821784  -5.889010  23.368121 -46.112838   1.210038 -14.432933  69.794658   0.017378  -0.060579 -10.434477   0.678406   3.584596  -1.740412  -0.000080   0.000318 -30.948127  -3.278244   2.760785  63.552770   0.005254  -0.000217 -35.594707  -1.330719   5.179627   0.843904  -0.000047   0.000131
 -2.538260   0.802674   4.075495   2.384739  17.360140  -2.783852  19.494786   0.223374   1.562225  -4.233703  -2.151496   5.077449  -7.446401  -5.019252   2.091094  -6.218109   7.994654  11.301368 -32.262167   2.936839  38.370357 -179.928592  84.401318 179.931872   0.153934   7.078239 -24.083392  -1.511981  -6.571839  -9.488924 -10.335909  -5.050746 -40.787693   0.230001 -79.822022   0.244782  -1.809552  -6.042058  23.504847 -46.427851   1.445559 -15.103072  71.134776   0.016106  -0.058476 -10.263861   0.312235   3.583834  -1.731870  -0.000030   0.000166 -31.529351  -3.046074   2.859309  64.468851   0.004633  -0.000270 -35.983247  -1.360177   5.216581   0.840947  -0.000038   0.000105
